<?xml version="1.0" encoding="utf-8"?>
<!-- Generator: Adobe Illustrator 16.0.0, SVG Export Plug-In . SVG Version: 6.00 Build 0)  -->
<!DOCTYPE svg PUBLIC "-//W3C//DTD SVG 1.1//EN" "http://www.w3.org/Graphics/SVG/1.1/DTD/svg11.dtd">
<svg version="1.1" xmlns="http://www.w3.org/2000/svg" xmlns:xlink="http://www.w3.org/1999/xlink" x="0px" y="0px" width="83.65px"
	 height="83.65px" viewBox="0 0 83.65 83.65" enable-background="new 0 0 83.65 83.65" xml:space="preserve">
<g id="Layer_2">
</g>
<g id="Fondo">
	<path fill="#FAD116" d="M83.65,10.658C83.65,4.771,78.879,0,72.992,0H10.658C4.771,0,0,4.771,0,10.658v62.333
		C0,78.878,4.771,83.65,10.658,83.65h62.334c5.887,0,10.658-4.771,10.658-10.658V10.658z"/>
	<path d="M67.375,19.63c0-0.043-0.016-0.086-0.02-0.13c-0.011-0.141-0.029-0.28-0.071-0.413c-0.003-0.013-0.003-0.026-0.007-0.039
		c-0.017-0.048-0.05-0.085-0.07-0.131c-0.047-0.11-0.1-0.217-0.165-0.316c-0.044-0.06-0.092-0.113-0.142-0.168
		c-0.069-0.079-0.141-0.153-0.226-0.219c-0.062-0.051-0.126-0.092-0.194-0.133c-0.048-0.029-0.088-0.068-0.139-0.093
		c-0.041-0.021-0.09-0.026-0.133-0.044c-0.074-0.029-0.147-0.053-0.223-0.073c-0.108-0.028-0.215-0.043-0.325-0.051
		c-0.044-0.003-0.086-0.021-0.132-0.021H35.953c-0.409,0-0.806,0.136-1.129,0.386l-16.84,13.023c-0.036,0.028-0.059,0.069-0.095,0.1
		c-0.058,0.052-0.104,0.107-0.156,0.167c-0.097,0.112-0.179,0.232-0.244,0.363c-0.033,0.064-0.067,0.124-0.094,0.192
		c-0.067,0.185-0.108,0.377-0.116,0.576c0,0.022-0.012,0.041-0.012,0.063V62.22c0,1.02,0.828,1.846,1.846,1.846h29.576
		c0.227,0,0.446-0.051,0.659-0.133c0.075-0.029,0.138-0.073,0.208-0.111c0.088-0.048,0.182-0.079,0.262-0.142l16.84-13.026
		c0.453-0.35,0.718-0.889,0.718-1.46V19.645C67.376,19.64,67.375,19.636,67.375,19.63z M36.585,21.491h23.539l-0.575,0.444
		l-11.49,8.887H24.52L36.585,21.491z M20.961,34.515h25.882v25.858H20.961V34.515z M63.682,48.288L50.537,58.457V33.574
		l13.145-10.167V48.288z"/>
</g>
</svg>
