<?xml version="1.0" encoding="utf-8"?>
<!-- Generator: Adobe Illustrator 16.0.0, SVG Export Plug-In . SVG Version: 6.00 Build 0)  -->
<!DOCTYPE svg PUBLIC "-//W3C//DTD SVG 1.1//EN" "http://www.w3.org/Graphics/SVG/1.1/DTD/svg11.dtd">
<svg version="1.1" xmlns="http://www.w3.org/2000/svg" xmlns:xlink="http://www.w3.org/1999/xlink" x="0px" y="0px" width="83.65px"
	 height="83.65px" viewBox="0 0 83.65 83.65" enable-background="new 0 0 83.65 83.65" xml:space="preserve">
<g id="Layer_2">
</g>
<g id="Fondo">
	<path fill="#FAD116" d="M83.65,10.658C83.65,4.771,78.879,0,72.993,0H10.658C4.771,0,0,4.771,0,10.658v62.333
		C0,78.878,4.771,83.65,10.658,83.65h62.335c5.886,0,10.657-4.771,10.657-10.658V10.658z"/>
	<g>
		<g>
			<g>
				<path d="M41.777,32.553c-0.66,0-1.223-0.201-1.691-0.604c-0.463-0.404-0.698-0.976-0.698-1.715c0-0.669,0.24-1.219,0.716-1.652
					c0.482-0.433,1.037-0.649,1.674-0.649c0.613,0,1.154,0.196,1.627,0.588c0.473,0.393,0.709,0.965,0.709,1.714
					c0,0.727-0.231,1.296-0.69,1.706C42.957,32.349,42.413,32.553,41.777,32.553z M44.113,37.437v13.658
					c0,0.948-0.225,1.662-0.674,2.147s-1.022,0.727-1.717,0.727c-0.689,0-1.256-0.249-1.686-0.745
					c-0.434-0.495-0.649-1.206-0.649-2.13V37.575c0-0.936,0.216-1.638,0.649-2.112c0.43-0.474,0.996-0.709,1.686-0.709
					c0.694,0,1.268,0.235,1.717,0.709C43.889,35.936,44.113,36.595,44.113,37.437z"/>
			</g>
			<g>
				<path d="M41.826,68.117c-7.314,0-14.194-2.848-19.366-8.021c-5.174-5.173-8.023-12.053-8.023-19.375
					c0-7.319,2.854-14.199,8.028-19.373c5.172-5.173,12.051-8.022,19.371-8.022c7.314,0,14.195,2.849,19.37,8.022
					c10.679,10.68,10.683,28.06,0.004,38.744C56.031,65.267,49.15,68.117,41.826,68.117L41.826,68.117z M41.836,17.977
					c-6.076,0-11.786,2.366-16.082,6.659c-4.297,4.296-6.666,10.009-6.666,16.084c0,6.079,2.363,11.791,6.662,16.087
					c4.295,4.293,10.002,6.657,16.076,6.657c6.08,0,11.797-2.365,16.094-6.662c8.865-8.868,8.86-23.298-0.004-32.166
					C53.623,20.342,47.91,17.977,41.836,17.977L41.836,17.977z"/>
			</g>
		</g>
	</g>
</g>
</svg>
