<?xml version="1.0" encoding="utf-8"?>
<!-- Generator: Adobe Illustrator 16.0.0, SVG Export Plug-In . SVG Version: 6.00 Build 0)  -->
<!DOCTYPE svg PUBLIC "-//W3C//DTD SVG 1.1//EN" "http://www.w3.org/Graphics/SVG/1.1/DTD/svg11.dtd">
<svg version="1.1" xmlns="http://www.w3.org/2000/svg" xmlns:xlink="http://www.w3.org/1999/xlink" x="0px" y="0px"
	 width="83.651px" height="83.65px" viewBox="0 0 83.651 83.65" enable-background="new 0 0 83.651 83.65" xml:space="preserve">
<g id="Layer_2">
</g>
<g id="Fondo">
	<path fill="#FAD116" d="M83.651,10.658C83.651,4.771,78.879,0,72.993,0H10.658C4.772,0,0,4.771,0,10.658v62.333
		C0,78.878,4.772,83.65,10.658,83.65h62.335c5.886,0,10.658-4.771,10.658-10.658V10.658z"/>
	<g>
		<g>
			<g>
				<path d="M67.038,60.144H24.154c-1.285,0-2.324-1.04-2.324-2.326V14.934c0-1.287,1.039-2.328,2.324-2.328
					c1.287,0,2.328,1.041,2.328,2.328v40.558h40.556c1.287,0,2.328,1.041,2.328,2.327C69.366,59.103,68.325,60.144,67.038,60.144
					L67.038,60.144z"/>
			</g>
			<g>
				<path d="M58.021,68.833c-1.285,0-2.326-1.04-2.326-2.326v-7.91c0-1.286,1.041-2.327,2.326-2.327s2.326,1.041,2.326,2.327v7.91
					C60.347,67.794,59.306,68.833,58.021,68.833L58.021,68.833z"/>
			</g>
			<g>
				<path d="M58.021,52.778c-1.285,0-2.326-1.039-2.326-2.326V25.951H31.717c-1.287,0-2.326-1.04-2.326-2.326
					c0-1.286,1.039-2.326,2.326-2.326h26.304c1.285,0,2.326,1.041,2.326,2.326v26.827C60.347,51.739,59.306,52.778,58.021,52.778
					L58.021,52.778z"/>
			</g>
			<g>
				<path d="M22.992,25.951h-7.856c-1.285,0-2.326-1.04-2.326-2.326c0-1.286,1.041-2.326,2.326-2.326h7.856
					c1.286,0,2.326,1.041,2.326,2.326C25.318,24.911,24.278,25.951,22.992,25.951L22.992,25.951z"/>
			</g>
		</g>
	</g>
</g>
</svg>
