<?xml version="1.0" encoding="utf-8"?>
<!-- Generator: Adobe Illustrator 16.0.0, SVG Export Plug-In . SVG Version: 6.00 Build 0)  -->
<!DOCTYPE svg PUBLIC "-//W3C//DTD SVG 1.1//EN" "http://www.w3.org/Graphics/SVG/1.1/DTD/svg11.dtd">
<svg version="1.1" xmlns="http://www.w3.org/2000/svg" xmlns:xlink="http://www.w3.org/1999/xlink" x="0px" y="0px" width="83.65px"
	 height="83.649px" viewBox="0 0 83.65 83.649" enable-background="new 0 0 83.65 83.649" xml:space="preserve">
<g id="Layer_2">
</g>
<g id="Fondo">
	<path opacity="0.5" fill="#BCBEC0" d="M83.65,10.658C83.65,4.771,78.879,0,72.993,0H10.658C4.771,0,0,4.771,0,10.658v62.333
		c0,5.887,4.771,10.658,10.658,10.658h62.335c5.886,0,10.657-4.771,10.657-10.658V10.658z"/>
	<g>
		<g>
			<g>
				<path d="M62.762,64.924H47.879c-1.285,0-2.326-1.042-2.326-2.328V47.932h-7.456v14.665c0,1.286-1.041,2.328-2.328,2.328h-14.88
					c-1.287,0-2.326-1.042-2.326-2.328V38.432c0-1.283,1.039-2.326,2.326-2.326s2.326,1.042,2.326,2.326v21.839h10.229V45.605
					c0-1.285,1.039-2.327,2.324-2.327h12.11c1.285,0,2.326,1.042,2.326,2.327v14.665h10.229V38.432c0-1.283,1.041-2.326,2.328-2.326
					c1.285,0,2.324,1.042,2.324,2.326v24.165C65.086,63.882,64.047,64.924,62.762,64.924L62.762,64.924z"/>
			</g>
			<g>
				<path d="M69.771,44.092c-0.469,0-0.941-0.14-1.35-0.435L41.827,24.611L15.231,43.657c-1.041,0.749-2.501,0.505-3.249-0.537
					c-0.746-1.044-0.504-2.498,0.541-3.246l27.949-20.016c0.808-0.579,1.898-0.579,2.708,0l27.948,20.016
					c1.047,0.748,1.285,2.202,0.537,3.246C71.21,43.755,70.498,44.092,69.771,44.092L69.771,44.092z"/>
			</g>
		</g>
	</g>
</g>
</svg>
