<?xml version="1.0" encoding="utf-8"?>
<!-- Generator: Adobe Illustrator 16.0.0, SVG Export Plug-In . SVG Version: 6.00 Build 0)  -->
<!DOCTYPE svg PUBLIC "-//W3C//DTD SVG 1.1//EN" "http://www.w3.org/Graphics/SVG/1.1/DTD/svg11.dtd">
<svg version="1.1" xmlns="http://www.w3.org/2000/svg" xmlns:xlink="http://www.w3.org/1999/xlink" x="0px" y="0px"
	 width="83.649px" height="83.65px" viewBox="0 0 83.649 83.65" enable-background="new 0 0 83.649 83.65" xml:space="preserve">
<g id="Layer_2">
</g>
<g id="Fondo">
	<path fill="#FAD116" d="M83.649,10.658C83.649,4.771,78.879,0,72.993,0H10.657C4.772,0,0,4.771,0,10.658v62.333
		C0,78.878,4.772,83.65,10.657,83.65h62.336c5.886,0,10.656-4.771,10.656-10.658V10.658z"/>
	<g>
		<g>
			<g>
				<path d="M64.964,66.178c-0.598,0-1.191-0.228-1.645-0.682L46.288,48.472c-0.91-0.907-0.91-2.38,0-3.29
					c0.907-0.908,2.38-0.908,3.291,0l17.028,17.024c0.909,0.907,0.909,2.381,0,3.29C66.153,65.95,65.56,66.178,64.964,66.178
					L64.964,66.178z"/>
			</g>
			<g>
				<path d="M37.978,68.083h-0.014c-0.93-0.005-1.77-0.563-2.127-1.419L14.647,16.589c-0.371-0.873-0.173-1.882,0.496-2.552
					c0.674-0.671,1.682-0.865,2.555-0.497l50.073,21.185c0.854,0.363,1.411,1.2,1.417,2.129c0.006,0.929-0.541,1.774-1.396,2.144
					l-19.264,8.426l-8.42,19.265C39.739,67.537,38.904,68.083,37.978,68.083L37.978,68.083z M21.169,20.062l16.844,39.807
					l6.616-15.142c0.237-0.539,0.665-0.966,1.2-1.2l15.148-6.624L21.169,20.062L21.169,20.062z"/>
			</g>
		</g>
	</g>
</g>
</svg>
