<?xml version="1.0" encoding="utf-8"?>
<!-- Generator: Adobe Illustrator 16.0.0, SVG Export Plug-In . SVG Version: 6.00 Build 0)  -->
<!DOCTYPE svg PUBLIC "-//W3C//DTD SVG 1.1//EN" "http://www.w3.org/Graphics/SVG/1.1/DTD/svg11.dtd">
<svg version="1.1" xmlns="http://www.w3.org/2000/svg" xmlns:xlink="http://www.w3.org/1999/xlink" x="0px" y="0px" width="83.65px"
	 height="83.649px" viewBox="0 0 83.65 83.649" enable-background="new 0 0 83.65 83.649" xml:space="preserve">
<g id="Layer_2">
</g>
<g id="Fondo">
	<path opacity="0.5" fill="#BCBEC0" d="M83.65,10.658C83.65,4.771,78.879,0,72.992,0H10.658C4.771,0,0,4.771,0,10.658v62.333
		c0,5.887,4.771,10.658,10.658,10.658h62.334c5.887,0,10.658-4.771,10.658-10.658V10.658z"/>
	<g>
		<g>
			<g>
				<path d="M31.09,36.423c-2.508,0-4.865-0.975-6.643-2.747l-2.6-2.604c-3.66-3.652-3.666-9.62,0-13.294
					c1.777-1.779,4.139-2.756,6.654-2.756l0,0c2.512,0,4.874,0.977,6.646,2.754l2.6,2.601c1.771,1.772,2.754,4.133,2.754,6.645
					c0,2.511-0.977,4.872-2.754,6.648C35.967,35.445,33.604,36.423,31.09,36.423L31.09,36.423z M28.502,19.675
					c-1.274,0-2.465,0.492-3.363,1.39c-1.85,1.856-1.85,4.872,0,6.719l2.6,2.603c1.795,1.786,4.924,1.784,6.723-0.01
					c0.896-0.894,1.389-2.087,1.389-3.355s-0.496-2.46-1.393-3.355l-2.6-2.604C30.964,20.167,29.769,19.675,28.502,19.675
					L28.502,19.675z"/>
			</g>
			<g>
				<path d="M61.156,66.419c-2.225,0-4.314-0.869-5.889-2.444l-7.951-7.95c-1.571-1.572-2.445-3.665-2.445-5.893
					s0.874-4.321,2.449-5.895c0.905-0.905,2.383-0.909,3.29,0.003c0.905,0.91,0.905,2.381-0.003,3.29
					c-0.695,0.693-1.082,1.617-1.082,2.602c0,0.984,0.387,1.908,1.082,2.602l7.951,7.954c0.695,0.695,1.617,1.079,2.598,1.079h0.006
					c0.982,0,1.907-0.384,2.607-1.082c0.904-0.903,2.381-0.908,3.291,0.004c0.903,0.909,0.903,2.382-0.006,3.29
					c-1.576,1.572-3.666,2.438-5.893,2.44l0,0H61.156z"/>
			</g>
			<g>
				<path d="M65.911,64.163c-0.597,0-1.193-0.227-1.646-0.682L35.402,34.618c-0.908-0.908-0.908-2.38,0-3.289
					c0.91-0.91,2.382-0.91,3.289,0l28.865,28.862c0.906,0.909,0.906,2.381,0,3.29C67.102,63.936,66.506,64.163,65.911,64.163
					L65.911,64.163z"/>
			</g>
			<g>
				<path d="M28.502,66.419h-0.006c-2.51,0-4.871-0.979-6.648-2.756s-2.754-4.141-2.754-6.652c0-2.513,0.982-4.871,2.76-6.645
					l2.591-2.593c1.78-1.78,4.138-2.757,6.649-2.757c2.51,0,4.873,0.977,6.654,2.751c1.777,1.781,2.754,4.145,2.754,6.654
					c0,2.513-0.982,4.873-2.758,6.65l-2.596,2.592C33.371,65.44,31.01,66.419,28.502,66.419L28.502,66.419z M31.094,49.668
					c-1.267,0-2.46,0.496-3.359,1.392l-2.593,2.596c-0.899,0.899-1.394,2.09-1.394,3.358c0,1.267,0.494,2.462,1.394,3.361
					c0.896,0.896,2.086,1.391,3.354,1.391h0.006c1.267,0,2.462-0.495,3.355-1.393l2.596-2.593c0.9-0.898,1.396-2.091,1.396-3.361
					c0-1.268-0.496-2.463-1.393-3.363C33.559,50.164,32.363,49.668,31.094,49.668L31.094,49.668z"/>
			</g>
			<g>
				<path d="M48.961,37.885c-0.594,0-1.189-0.227-1.645-0.681c-1.576-1.574-2.445-3.669-2.445-5.895
					c0-2.228,0.869-4.322,2.445-5.897l7.951-7.951c3.248-3.249,8.539-3.248,11.787-0.002c0.909,0.909,0.909,2.38,0.006,3.29
					c-0.91,0.914-2.383,0.909-3.291,0.004c-1.439-1.431-3.77-1.432-5.211-0.002l-7.951,7.952c-1.437,1.435-1.437,3.775,0,5.211
					c0.908,0.909,0.908,2.382,0,3.29C50.151,37.658,49.557,37.885,48.961,37.885L48.961,37.885z"/>
			</g>
			<g>
				<path d="M37.048,50.791c-0.597,0-1.191-0.228-1.646-0.682c-0.908-0.909-0.908-2.38,0-3.289l28.863-28.858
					c0.908-0.908,2.38-0.908,3.291,0c0.906,0.91,0.906,2.381,0,3.29L38.691,50.108C38.238,50.563,37.641,50.791,37.048,50.791
					L37.048,50.791z"/>
			</g>
		</g>
	</g>
</g>
</svg>
