<?xml version="1.0" encoding="utf-8"?>
<!-- Generator: Adobe Illustrator 16.0.0, SVG Export Plug-In . SVG Version: 6.00 Build 0)  -->
<!DOCTYPE svg PUBLIC "-//W3C//DTD SVG 1.1//EN" "http://www.w3.org/Graphics/SVG/1.1/DTD/svg11.dtd">
<svg version="1.1" xmlns="http://www.w3.org/2000/svg" xmlns:xlink="http://www.w3.org/1999/xlink" x="0px" y="0px" width="83.65px"
	 height="83.649px" viewBox="0 0 83.65 83.649" enable-background="new 0 0 83.65 83.649" xml:space="preserve">
<g id="Layer_2">
</g>
<g id="Fondo">
	<path opacity="0.5" fill="#BCBEC0" d="M83.65,10.658C83.65,4.771,78.879,0,72.99,0H10.658C4.771,0,0,4.771,0,10.658v62.333
		c0,5.887,4.771,10.658,10.658,10.658H72.99c5.889,0,10.66-4.771,10.66-10.658V10.658z"/>
	<g>
		<g>
			<g>
				<path d="M46.865,65.762c-0.646,0-1.164-0.52-1.164-1.163V50.64c0-0.644,0.518-1.163,1.164-1.163h13.957
					c0.643,0,1.164,0.519,1.164,1.163c0,0.643-0.521,1.164-1.164,1.164H48.027v12.795C48.027,65.242,47.504,65.762,46.865,65.762
					L46.865,65.762z"/>
			</g>
			<g>
				<path d="M46.865,66.926H22.828c-1.287,0-2.328-1.041-2.328-2.327V16.841c0-1.285,1.041-2.327,2.328-2.327h37.994
					c1.287,0,2.328,1.042,2.328,2.327V50.64c0,0.618-0.246,1.208-0.684,1.645L48.51,66.244
					C48.073,66.68,47.482,66.926,46.865,66.926L46.865,66.926z M25.152,62.272h20.749l12.597-12.596V19.168H25.152V62.272
					L25.152,62.272z"/>
			</g>
			<g>
				<path d="M44.342,26.829H30.676c-0.643,0-1.164-0.521-1.164-1.163c0-0.643,0.521-1.164,1.164-1.164h13.666
					c0.646,0,1.164,0.521,1.164,1.164C45.506,26.308,44.988,26.829,44.342,26.829L44.342,26.829z"/>
			</g>
			<g>
				<path d="M53.357,32.45H30.676c-0.643,0-1.164-0.519-1.164-1.162c0-0.643,0.521-1.164,1.164-1.164h22.682
					c0.646,0,1.164,0.521,1.164,1.164C54.521,31.932,54.004,32.45,53.357,32.45L53.357,32.45z"/>
			</g>
			<g>
				<path d="M53.357,38.074H30.676c-0.643,0-1.164-0.521-1.164-1.163c0-0.644,0.521-1.164,1.164-1.164h22.682
					c0.646,0,1.164,0.52,1.164,1.164C54.521,37.554,54.004,38.074,53.357,38.074L53.357,38.074z"/>
			</g>
			<g>
				<path d="M40.175,43.697h-9.499c-0.643,0-1.164-0.52-1.164-1.163c0-0.643,0.521-1.164,1.164-1.164h9.499
					c0.643,0,1.164,0.521,1.164,1.164C41.339,43.177,40.817,43.697,40.175,43.697L40.175,43.697z"/>
			</g>
		</g>
	</g>
</g>
</svg>
