<?xml version="1.0" encoding="utf-8"?>
<!-- Generator: Adobe Illustrator 16.0.0, SVG Export Plug-In . SVG Version: 6.00 Build 0)  -->
<!DOCTYPE svg PUBLIC "-//W3C//DTD SVG 1.1//EN" "http://www.w3.org/Graphics/SVG/1.1/DTD/svg11.dtd">
<svg version="1.1" xmlns="http://www.w3.org/2000/svg" xmlns:xlink="http://www.w3.org/1999/xlink" x="0px" y="0px" width="83.65px"
	 height="83.65px" viewBox="0 0 83.65 83.65" enable-background="new 0 0 83.65 83.65" xml:space="preserve">
<g id="Layer_2">
</g>
<g id="Fondo">
	<path fill="#FAD116" d="M83.65,10.658C83.65,4.771,78.879,0,72.993,0H10.658C4.771,0,0,4.771,0,10.658v62.333
		C0,78.878,4.771,83.65,10.658,83.65h62.335c5.886,0,10.657-4.771,10.657-10.658V10.658z"/>
	<g>
		<g>
			<g>
				<path d="M24.488,49.906c-0.564,0-1.135-0.186-1.607-0.563c-1.113-0.889-1.291-2.513-0.404-3.624l9.635-12.078
					c0.891-1.115,2.514-1.292,3.625-0.406c1.115,0.889,1.295,2.512,0.407,3.624l-9.639,12.079
					C25.998,49.577,25.245,49.906,24.488,49.906L24.488,49.906z"/>
			</g>
			<g>
				<path d="M59.159,49.906c-0.753,0-1.505-0.333-2.013-0.969l-9.639-12.079c-0.885-1.113-0.705-2.735,0.408-3.624
					c1.115-0.886,2.739-0.707,3.624,0.406l9.637,12.078c0.886,1.114,0.704,2.737-0.405,3.624
					C60.294,49.723,59.725,49.906,59.159,49.906L59.159,49.906z"/>
			</g>
		</g>
		<g>
			<g>
				<path d="M37.706,71.99c-1.427,0-2.579-1.152-2.579-2.576V57.235c0-1.425,1.152-2.578,2.579-2.578
					c1.425,0,2.577,1.153,2.577,2.578v12.179C40.283,70.838,39.131,71.99,37.706,71.99L37.706,71.99z"/>
			</g>
			<g>
				<path d="M45.943,71.99c-1.422,0-2.575-1.152-2.575-2.576V57.235c0-1.425,1.153-2.578,2.575-2.578c1.428,0,2.58,1.153,2.58,2.578
					v12.179C48.523,70.838,47.371,71.99,45.943,71.99L45.943,71.99z"/>
			</g>
		</g>
		<g>
			<path d="M41.824,30.229c-4.087,0-7.41-3.325-7.41-7.414c0-4.086,3.323-7.411,7.41-7.411c4.09,0,7.414,3.325,7.414,7.411
				C49.238,26.905,45.914,30.229,41.824,30.229L41.824,30.229z M41.824,20.561c-1.241,0-2.255,1.012-2.255,2.255
				c0,1.245,1.014,2.259,2.255,2.259c1.244,0,2.258-1.014,2.258-2.259C44.082,21.573,43.068,20.561,41.824,20.561L41.824,20.561z"/>
		</g>
		<g>
			<path d="M46.664,57.519h-9.678c-2.656,0-4.893-2.181-5.095-4.967L30.826,37.07c-0.099-1.364,0.363-2.674,1.301-3.681
				c0.982-1.052,2.4-1.654,3.898-1.654h11.593c1.506,0,2.931,0.604,3.911,1.657c0.936,1.007,1.398,2.317,1.296,3.687L51.76,52.543
				C51.553,55.341,49.316,57.519,46.664,57.519L46.664,57.519z M47.682,36.716l-11.656,0.175l1.01,15.296
				c0.006,0.118,0.085,0.197,0.104,0.208l9.407-0.032c0.026-0.037,0.062-0.102,0.073-0.19L47.682,36.716L47.682,36.716z"/>
		</g>
	</g>
</g>
</svg>
