<?xml version="1.0" encoding="utf-8"?>
<!-- Generator: Adobe Illustrator 16.0.0, SVG Export Plug-In . SVG Version: 6.00 Build 0)  -->
<!DOCTYPE svg PUBLIC "-//W3C//DTD SVG 1.1//EN" "http://www.w3.org/Graphics/SVG/1.1/DTD/svg11.dtd">
<svg version="1.1" xmlns="http://www.w3.org/2000/svg" xmlns:xlink="http://www.w3.org/1999/xlink" x="0px" y="0px"
	 width="83.651px" height="83.649px" viewBox="0 0 83.651 83.649" enable-background="new 0 0 83.651 83.649" xml:space="preserve">
<g id="Layer_2">
</g>
<g id="Fondo">
	<path opacity="0.5" fill="#BCBEC0" d="M83.651,10.658C83.651,4.771,78.879,0,72.993,0H10.658C4.772,0,0,4.771,0,10.658v62.333
		c0,5.887,4.772,10.658,10.658,10.658h62.335c5.886,0,10.658-4.771,10.658-10.658V10.658z"/>
	<g>
		<g>
			<g>
				<path d="M11.518,72.304c-1.287,0-2.328-1.042-2.328-2.328V10.789c0-1.286,1.041-2.326,2.328-2.326
					c1.285,0,2.324,1.04,2.324,2.326v59.188C13.842,71.262,12.803,72.304,11.518,72.304L11.518,72.304z"/>
			</g>
			<g>
				<path d="M9.201,70.651c0-1.286,1.041-2.327,2.328-2.327h59.188c1.285,0,2.326,1.041,2.326,2.327s-1.041,2.327-2.326,2.327
					H11.529C10.242,72.978,9.201,71.938,9.201,70.651L9.201,70.651z"/>
			</g>
			<g>
				<path d="M71.469,66.172c-1.285,0-2.324-1.04-2.324-2.327V51.632c0-1.286,1.039-2.327,2.324-2.327
					c1.286,0,2.328,1.042,2.328,2.327v12.214C73.797,65.133,72.755,66.172,71.469,66.172L71.469,66.172z"/>
				<g>
					<path d="M40.633,66.172c-1.285,0-2.324-1.04-2.324-2.327V51.632c0-1.286,1.039-2.327,2.324-2.327
						c1.287,0,2.328,1.042,2.328,2.327v12.214C42.961,65.133,41.92,66.172,40.633,66.172L40.633,66.172z"/>
				</g>
				<g>
					<path d="M50.912,66.172c-1.287,0-2.326-1.04-2.326-2.327V51.632c0-1.286,1.039-2.327,2.326-2.327
						c1.285,0,2.326,1.042,2.326,2.327v12.214C53.238,65.133,52.197,66.172,50.912,66.172L50.912,66.172z"/>
				</g>
				<g>
					<path d="M61.189,66.172c-1.287,0-2.326-1.04-2.326-2.327V51.632c0-1.286,1.039-2.327,2.326-2.327s2.326,1.042,2.326,2.327
						v12.214C63.516,65.133,62.477,66.172,61.189,66.172L61.189,66.172z"/>
				</g>
			</g>
			<path d="M22.888,61.232c-0.909-0.909-0.909-2.381,0-3.29l8.635-8.635c0.911-0.91,2.383-0.91,3.294-0.001
				c0.904,0.908,0.906,2.382,0,3.291l-8.637,8.636C25.27,62.142,23.797,62.142,22.888,61.232L22.888,61.232z"/>
			<g>
				<g>
					<path d="M16.303,11.64c0-1.285,1.039-2.326,2.324-2.326h12.215c1.287,0,2.326,1.041,2.326,2.326
						c0,1.286-1.039,2.327-2.326,2.327H18.627C17.342,13.967,16.303,12.926,16.303,11.64L16.303,11.64z"/>
				</g>
				<g>
					<path d="M16.303,21.921c0-1.285,1.039-2.327,2.324-2.327h12.215c1.287,0,2.326,1.042,2.326,2.327s-1.039,2.327-2.326,2.327
						H18.627C17.342,24.248,16.303,23.206,16.303,21.921L16.303,21.921z"/>
				</g>
				<g>
					<path d="M16.303,32.199c0-1.286,1.039-2.327,2.324-2.327h12.215c1.287,0,2.326,1.041,2.326,2.327
						c0,1.286-1.039,2.326-2.326,2.326H18.627C17.342,34.525,16.303,33.485,16.303,32.199L16.303,32.199z"/>
				</g>
				<g>
					<path d="M16.303,42.477c0-1.285,1.039-2.325,2.324-2.325h12.215c1.287,0,2.326,1.04,2.326,2.325
						c0,1.287-1.039,2.327-2.326,2.327H18.627C17.342,44.803,16.303,43.763,16.303,42.477L16.303,42.477z"/>
				</g>
			</g>
		</g>
	</g>
</g>
</svg>
